<?xml version="1.0" encoding="utf-8"?>
<!-- Generator: Adobe Illustrator 17.0.0, SVG Export Plug-In . SVG Version: 6.00 Build 0)  -->
<!DOCTYPE svg PUBLIC "-//W3C//DTD SVG 1.1//EN" "http://www.w3.org/Graphics/SVG/1.1/DTD/svg11.dtd">
<svg version="1.1" id="Layer_1" xmlns="http://www.w3.org/2000/svg" xmlns:xlink="http://www.w3.org/1999/xlink" x="0px" y="0px"
	 width="475.027px" height="400.366px" viewBox="0 0 475.027 400.366" enable-background="new 0 0 475.027 400.366"
	 xml:space="preserve">
<path fill="#24569A" d="M144.518,113.33C65.807,113.33,2,177.138,2,255.848s63.807,142.518,142.518,142.518
	s142.518-63.807,142.518-142.518S223.228,113.33,144.518,113.33z M202.431,285.258c-4.814,7.577-11.072,14.145-18.389,19.316
	c-20.283,16.951-46.4,27.153-74.902,27.153c-7.311,0-14.464-0.678-21.403-1.962l16.2-25.951
	c-16.974-12.482-27.992-32.59-27.992-55.275c0-37.87,30.7-68.57,68.57-68.57c27.656,0,51.486,16.375,62.329,39.957
	c4.004,8.709,6.241,18.399,6.241,28.613C213.084,262.048,209.175,274.642,202.431,285.258z"/>
<path fill="#6060AB" d="M211.402,2c-32.124,0-58.165,26.041-58.165,58.165s26.041,58.165,58.165,58.165s58.165-26.041,58.165-58.165
	S243.526,2,211.402,2z M235.038,72.168c-1.965,3.092-4.519,5.773-7.505,7.883c-8.278,6.918-18.937,11.082-30.569,11.082
	c-2.984,0-5.903-0.277-8.735-0.801l6.612-10.591c-6.927-5.094-11.424-13.301-11.424-22.559c0-15.456,12.529-27.985,27.985-27.985
	c11.287,0,21.013,6.683,25.438,16.308c1.634,3.554,2.547,7.509,2.547,11.678C239.386,62.695,237.791,67.836,235.038,72.168z"/>
<path fill="#0857A8" d="M297.886,320.067c0,34.363,27.857,62.219,62.219,62.219s62.219-27.856,62.219-62.219
	s-27.857-62.219-62.219-62.219S297.886,285.704,297.886,320.067z M330.171,316.876c0-4.459,0.976-8.689,2.725-12.491
	c4.734-10.295,15.137-17.444,27.211-17.444c16.533,0,29.936,13.403,29.936,29.936c0,9.904-4.81,18.682-12.221,24.131l7.072,11.329
	c-3.03,0.561-6.152,0.857-9.344,0.857c-12.443,0-23.845-4.454-32.7-11.854c-3.194-2.257-5.927-5.125-8.028-8.433
	C331.877,328.272,330.171,322.774,330.171,316.876z"/>
<path fill="#006055" d="M286.778,142.682c0,51.155,41.469,92.625,92.625,92.625s92.625-41.469,92.625-92.625
	s-41.469-92.625-92.625-92.625S286.778,91.527,286.778,142.682z M334.84,137.932c0-6.638,1.454-12.936,4.056-18.596
	c7.047-15.326,22.534-25.969,40.509-25.969c24.612,0,44.565,19.952,44.565,44.565c0,14.743-7.161,27.812-18.193,35.924
	l10.529,16.866c-4.51,0.835-9.159,1.275-13.91,1.275c-18.524,0-35.498-6.63-48.68-17.647c-4.755-3.361-8.823-7.629-11.951-12.554
	C337.38,154.896,334.84,146.711,334.84,137.932z"/>
</svg>
