<?xml version="1.0" encoding="utf-8"?>
<!-- Generator: Adobe Illustrator 17.0.0, SVG Export Plug-In . SVG Version: 6.00 Build 0)  -->
<!DOCTYPE svg PUBLIC "-//W3C//DTD SVG 1.1//EN" "http://www.w3.org/Graphics/SVG/1.1/DTD/svg11.dtd">
<svg version="1.1" id="Layer_1" xmlns="http://www.w3.org/2000/svg" xmlns:xlink="http://www.w3.org/1999/xlink" x="0px" y="0px"
	 width="41px" height="41px" viewBox="379.285 404.672 41 41" enable-background="new 379.285 404.672 41 41" xml:space="preserve">
<rect x="379.285" y="404.672" fill="#E5E5E5" width="41" height="41"/>
<path fill="none" d="M550.956,257.514"/>
<path fill="#9B9A9A" d="M415.822,436.769c-4.384-1.619-10.379-3.56-10.912-3.732l-0.29-2.804c0.588-0.622,1.095-1.331,1.513-2.12
	c0.766-1.443,1.237-3.157,1.403-5.096c0.63-0.465,1.436-1.633,0.921-3.521c-0.111-0.407-0.131-1.082-0.154-1.864
	c-0.05-1.711-0.119-4.055-1.199-6.086c-0.598-1.125-1.453-2.042-2.54-2.726c-1.247-0.784-2.84-1.286-4.735-1.492l-0.457-0.002
	l-0.044,0.002c-1.895,0.206-3.489,0.708-4.735,1.492c-1.088,0.684-1.942,1.601-2.54,2.726c-0.69,1.299-0.967,2.725-1.09,4.032
	l-0.02,0.013v0.212c-0.054,0.655-0.072,1.275-0.089,1.829c-0.023,0.782-0.043,1.458-0.154,1.864
	c-0.515,1.887,0.292,3.055,0.921,3.521c0.165,1.939,0.637,3.653,1.403,5.096c0.41,0.772,0.904,1.468,1.475,2.08l-0.31,2.997
	c-1.597,0.52-6.628,2.171-10.441,3.579c-4.592,1.696-4.462,3.109-4.462,3.109v5.795h20.5h20.5v-5.795
	C420.284,439.878,420.414,438.465,415.822,436.769z M392.422,422.753l-0.013-0.221l-0.033-0.018
	c-0.092-0.95-0.407-4.873,0.385-7.231c0.479-0.367,1.101-0.62,1.906-0.613c2.815,0.026,6.32,2.884,11.674,1.54
	c0.602,1.604,0.473,5.273,0.422,6.314l-0.012,0.006l-0.016,0.223c-0.253,3.436-1.459,6.033-3.582,7.718
	c-1.469,1.166-2.897,1.47-3.11,1.511h-0.929c-0.214-0.04-1.641-0.345-3.11-1.511C393.88,428.786,392.675,426.189,392.422,422.753z
	 M395.002,433.295l0.247-2.385c0.093,0.079,0.187,0.157,0.283,0.232c1.751,1.375,3.415,1.644,3.485,1.655l0.031,0.005h1.063
	l0.031-0.005c0.07-0.011,1.734-0.279,3.485-1.655c0.083-0.065,0.164-0.132,0.244-0.199l0.282,2.723l-4.366,3.881L395.002,433.295z"
	/>
</svg>
