<?xml version="1.0" encoding="utf-8"?>
<!-- Generator: Adobe Illustrator 17.0.0, SVG Export Plug-In . SVG Version: 6.00 Build 0)  -->
<!DOCTYPE svg PUBLIC "-//W3C//DTD SVG 1.1//EN" "http://www.w3.org/Graphics/SVG/1.1/DTD/svg11.dtd">
<svg version="1.1" id="Layer_1" xmlns="http://www.w3.org/2000/svg" xmlns:xlink="http://www.w3.org/1999/xlink" x="0px" y="0px"
	 width="165px" height="38.673px" viewBox="0 0 165 38.673" enable-background="new 0 0 165 38.673" xml:space="preserve">
<g>
	<path fill="#FFFFFF" d="M19.337,0C8.657,0,0,8.657,0,19.337s8.657,19.337,19.337,19.337s19.337-8.657,19.337-19.337
		S30.016,0,19.337,0z M27.194,23.327c-0.653,1.028-1.502,1.919-2.495,2.621c-2.752,2.3-6.296,3.684-10.163,3.684
		c-0.992,0-1.962-0.092-2.904-0.266l2.198-3.521c-2.303-1.694-3.798-4.422-3.798-7.5c0-5.138,4.165-9.304,9.303-9.304
		c3.752,0,6.986,2.222,8.457,5.421c0.543,1.182,0.847,2.496,0.847,3.882C28.64,20.178,28.109,21.887,27.194,23.327z"/>
	<g>
		<path fill="#FFFFFF" d="M54.931,13.249l-2.581,2.278c-0.906-1.261-1.829-1.892-2.768-1.892c-0.457,0-0.831,0.123-1.122,0.367
			c-0.291,0.245-0.436,0.521-0.436,0.828c0,0.307,0.104,0.597,0.312,0.871c0.282,0.365,1.134,1.149,2.556,2.352
			c1.33,1.112,2.136,1.813,2.419,2.104c0.706,0.714,1.207,1.396,1.502,2.048c0.295,0.651,0.443,1.363,0.443,2.135
			c0,1.502-0.519,2.743-1.558,3.722c-1.038,0.979-2.392,1.469-4.062,1.469c-1.304,0-2.44-0.32-3.408-0.958
			c-0.968-0.639-1.797-1.643-2.486-3.012l2.93-1.767c0.881,1.618,1.895,2.427,3.042,2.427c0.598,0,1.101-0.174,1.509-0.523
			c0.407-0.349,0.611-0.751,0.611-1.207c0-0.415-0.154-0.83-0.461-1.245c-0.308-0.415-0.985-1.05-2.032-1.904
			c-1.995-1.626-3.284-2.881-3.865-3.765C44.89,16.69,44.6,15.809,44.6,14.929c0-1.27,0.484-2.359,1.452-3.267
			c0.968-0.909,2.162-1.363,3.583-1.363c0.914,0,1.784,0.212,2.611,0.635C53.071,11.357,53.967,12.128,54.931,13.249z"/>
		<path fill="#FFFFFF" d="M67.222,10.299c2.59,0,4.818,0.938,6.682,2.813c1.864,1.875,2.796,4.162,2.796,6.858
			c0,2.672-0.92,4.933-2.759,6.784c-1.839,1.851-4.071,2.776-6.695,2.776c-2.748,0-5.032-0.95-6.85-2.85
			c-1.819-1.9-2.727-4.157-2.727-6.771c0-1.751,0.423-3.361,1.27-4.83c0.847-1.469,2.012-2.633,3.494-3.491
			C63.915,10.728,65.511,10.299,67.222,10.299z M67.185,13.709c-1.695,0-3.119,0.589-4.274,1.767
			c-1.155,1.178-1.732,2.676-1.732,4.493c0,2.025,0.727,3.626,2.181,4.805c1.129,0.921,2.425,1.382,3.887,1.382
			c1.653,0,3.061-0.598,4.224-1.792c1.163-1.195,1.745-2.668,1.745-4.419c0-1.743-0.586-3.218-1.757-4.425
			C70.287,14.313,68.863,13.709,67.185,13.709z"/>
		<path fill="#FFFFFF" d="M96.815,13.977l-2.438,2.324c-1.658-1.752-3.523-2.629-5.596-2.629c-1.749,0-3.223,0.598-4.421,1.794
			c-1.198,1.196-1.797,2.67-1.797,4.423c0,1.221,0.265,2.305,0.796,3.252c0.53,0.947,1.281,1.69,2.251,2.23
			c0.97,0.54,2.048,0.81,3.234,0.81c1.011,0,1.936-0.189,2.773-0.567c0.837-0.378,1.758-1.065,2.761-2.062l2.363,2.465
			c-1.353,1.32-2.631,2.235-3.834,2.746s-2.577,0.766-4.12,0.766c-2.846,0-5.176-0.902-6.989-2.707s-2.72-4.118-2.72-6.939
			c0-1.825,0.413-3.448,1.238-4.867s2.008-2.56,3.547-3.423c1.539-0.863,3.197-1.295,4.973-1.295c1.51,0,2.964,0.319,4.363,0.957
			S95.803,12.801,96.815,13.977z"/>
		<path fill="#FFFFFF" d="M99.616,10.759h3.46v18.31h-3.46V10.759z"/>
		<path fill="#FFFFFF" d="M112.583,10.759h3.535l7.042,18.31h-3.622l-1.433-3.771h-7.471l-1.49,3.771h-3.622L112.583,10.759z
			 M114.372,15.613l-2.456,6.286h4.898L114.372,15.613z"/>
		<path fill="#FFFFFF" d="M125.854,10.759h3.485v14.986h5.078v3.323h-8.564V10.759z"/>
		<path fill="#FFFFFF" d="M144.251,10.759h9.086v3.398h-5.626v3.323h5.626v3.348h-5.626v8.24h-3.46V10.759z"/>
		<path fill="#FFFFFF" d="M156.436,10.759h3.485v14.986H165v3.323h-8.564V10.759z"/>
	</g>
</g>
</svg>
