<?xml version="1.0" encoding="utf-8"?>
<!-- Generator: Adobe Illustrator 17.0.0, SVG Export Plug-In . SVG Version: 6.00 Build 0)  -->
<!DOCTYPE svg PUBLIC "-//W3C//DTD SVG 1.1//EN" "http://www.w3.org/Graphics/SVG/1.1/DTD/svg11.dtd">
<svg version="1.1" id="Layer_1" xmlns="http://www.w3.org/2000/svg" xmlns:xlink="http://www.w3.org/1999/xlink" x="0px" y="0px"
	 width="559.408px" height="130.673px" viewBox="0 0 559.408 130.673" enable-background="new 0 0 559.408 130.673"
	 xml:space="preserve">
<g>
	<path fill="#FFFFFF" d="M65.337,0C29.252,0,0,29.252,0,65.337s29.252,65.337,65.337,65.337s65.337-29.252,65.337-65.337
		S101.421,0,65.337,0z M91.887,78.819c-2.207,3.474-5.076,6.485-8.43,8.855c-9.299,7.771-21.272,12.448-34.338,12.448
		c-3.352,0-6.631-0.311-9.812-0.899l7.427-11.897c-7.782-5.722-12.833-14.941-12.833-25.34c0-17.361,14.074-31.436,31.435-31.436
		c12.679,0,23.603,7.507,28.574,18.318c1.836,3.993,2.861,8.435,2.861,13.117C96.77,68.179,94.979,73.953,91.887,78.819z"/>
	<g>
		<path fill="#FFFFFF" d="M185.604,44.765l-8.722,7.696c-3.063-4.261-6.18-6.393-9.354-6.393c-1.545,0-2.809,0.414-3.792,1.241
			c-0.983,0.827-1.475,1.76-1.475,2.797c0,1.038,0.351,2.019,1.054,2.944c0.954,1.234,3.833,3.884,8.636,7.949
			c4.493,3.758,7.218,6.126,8.174,7.108c2.387,2.412,4.078,4.717,5.076,6.918c0.997,2.201,1.496,4.605,1.496,7.212
			c0,5.075-1.755,9.267-5.264,12.575c-3.509,3.309-8.083,4.963-13.725,4.963c-4.407,0-8.245-1.08-11.516-3.238
			c-3.27-2.159-6.07-5.552-8.399-10.178l9.898-5.972c2.977,5.467,6.402,8.201,10.277,8.201c2.021,0,3.722-0.589,5.098-1.767
			s2.063-2.537,2.063-4.08c0-1.402-0.52-2.803-1.559-4.206c-1.039-1.402-3.328-3.547-6.867-6.435
			c-6.741-5.495-11.095-9.736-13.061-12.722c-1.966-2.986-2.948-5.965-2.948-8.937c0-4.29,1.635-7.97,4.905-11.04
			c3.27-3.07,7.306-4.605,12.105-4.605c3.088,0,6.029,0.715,8.822,2.145C179.322,38.373,182.347,40.98,185.604,44.765z"/>
		<path fill="#FFFFFF" d="M227.135,34.798c8.753,0,16.279,3.169,22.578,9.505c6.299,6.337,9.448,14.062,9.448,23.174
			c0,9.028-3.107,16.669-9.322,22.921c-6.214,6.253-13.754,9.379-22.62,9.379c-9.286,0-17.002-3.21-23.146-9.631
			c-6.145-6.42-9.216-14.047-9.216-22.879c0-5.916,1.431-11.355,4.292-16.318c2.862-4.962,6.797-8.895,11.805-11.797
			S221.355,34.798,227.135,34.798z M227.009,46.321c-5.727,0-10.54,1.991-14.44,5.972c-3.901,3.981-5.853,9.042-5.853,15.183
			c0,6.841,2.456,12.253,7.368,16.234c3.816,3.112,8.195,4.668,13.135,4.668c5.585,0,10.343-2.019,14.272-6.056
			c3.93-4.038,5.895-9.014,5.895-14.931c0-5.888-1.979-10.872-5.937-14.951C237.492,48.361,232.678,46.321,227.009,46.321z"/>
		<path fill="#FFFFFF" d="M327.127,47.226l-8.236,7.852c-5.603-5.921-11.905-8.883-18.909-8.883c-5.91,0-10.89,2.021-14.938,6.063
			s-6.072,9.023-6.072,14.945c0,4.125,0.896,7.789,2.689,10.988c1.792,3.2,4.327,5.711,7.605,7.536
			c3.277,1.824,6.92,2.736,10.926,2.736c3.417,0,6.54-0.638,9.37-1.916c2.829-1.277,5.938-3.599,9.328-6.967l7.984,8.331
			c-4.57,4.46-8.889,7.553-12.954,9.278s-8.706,2.587-13.921,2.587c-9.617,0-17.489-3.049-23.615-9.147s-9.189-13.914-9.189-23.447
			c0-6.168,1.395-11.65,4.185-16.444s6.785-8.649,11.986-11.566c5.201-2.916,10.802-4.374,16.802-4.374
			c5.104,0,10.017,1.078,14.741,3.233S323.706,43.252,327.127,47.226z"/>
		<path fill="#FFFFFF" d="M336.589,36.354h11.691V98.22h-11.691V36.354z"/>
		<path fill="#FFFFFF" d="M380.403,36.354h11.943L416.14,98.22h-12.238l-4.841-12.743h-25.244l-5.033,12.743h-12.238L380.403,36.354
			z M386.448,52.756l-8.3,21.239h16.551L386.448,52.756z"/>
		<path fill="#FFFFFF" d="M425.246,36.354h11.776V86.99h17.159V98.22h-28.936V36.354z"/>
		<path fill="#FFFFFF" d="M487.406,36.354h30.702v11.482h-19.01v11.229h19.01v11.313h-19.01V98.22h-11.692V36.354z"/>
		<path fill="#FFFFFF" d="M528.58,36.354h11.776V86.99h17.159V98.22H528.58V36.354z"/>
	</g>
</g>
</svg>
