<?xml version="1.0" encoding="utf-8"?>
<!-- Generator: Adobe Illustrator 17.0.0, SVG Export Plug-In . SVG Version: 6.00 Build 0)  -->
<!DOCTYPE svg PUBLIC "-//W3C//DTD SVG 1.1//EN" "http://www.w3.org/Graphics/SVG/1.1/DTD/svg11.dtd">
<svg version="1.1" id="Layer_1" xmlns="http://www.w3.org/2000/svg" xmlns:xlink="http://www.w3.org/1999/xlink" x="0px" y="0px"
	 width="466px" height="299px" viewBox="0 0 466 299" enable-background="new 0 0 466 299" xml:space="preserve">
<path fill-rule="evenodd" clip-rule="evenodd" fill="#070808" d="M370,0c-0.333,14.332-0.667,28.668-1,43c-0.333,0-0.667,0-1,0
	c-0.333,1.333-0.667,2.667-1,4c-0.333,0-0.667,0-1,0c-1.829,4.199-6.032,22.954-4,30c0.333,0,0.667,0,1,0c0,1.666,0,3.333,0,5
	c0.333,0,0.667,0,1,0c0,1,0,2,0,3c0.333,0,0.667,0,1,0c1,3,2,6,3,9c0.333,0,0.667,0,1,0c0,0.667,0,1.333,0,2
	c0.667,0.333,1.333,0.667,2,1c-0.333,18.998-0.667,38.002-1,57c-0.333,0-0.667,0-1,0c-1-1.333-2-2.667-3-4c-0.667,0-1.333,0-2,0
	c-0.667-1-1.333-2-2-3c-0.667,0-1.333,0-2,0c-1-1.333-2-2.667-3-4c-0.667,0-1.333,0-2,0c-0.333-0.667-0.667-1.333-1-2
	c-1-0.333-2-0.667-3-1c-1-1.333-2-2.667-3-4c-0.667,0-1.333,0-2,0c-0.667-1-1.333-2-2-3c-0.667,0-1.333,0-2,0c-1-1.333-2-2.667-3-4
	c-1.333-0.333-2.667-0.667-4-1c-3.666-3.333-7.334-6.667-11-10c0-0.667,0-1.333,0-2c-1-0.667-2-1.333-3-2
	c-0.333-1.333-0.667-2.667-1-4c-0.333,0-0.667,0-1,0c0-0.667,0-1.333,0-2c-0.333,0-0.667,0-1,0c-0.667-2-1.333-4-2-6
	c-0.333,0-0.667,0-1,0c0-1,0-2,0-3c-0.333,0-0.667,0-1,0c-0.333-2.666-0.667-5.334-1-8c-0.333,0-0.667,0-1,0c0-2.333,0-4.667,0-7
	c-0.333,0-0.667,0-1,0c-1.27-4.524,0.088-21.806,1-25c0-2.333,0-4.667,0-7c0.333,0,0.667,0,1,0c0-1.667,0-3.333,0-5
	c0.333,0,0.667,0,1,0c0-1.333,0-2.667,0-4c0.333,0,0.667,0,1,0c0-1.333,0-2.667,0-4C323.636,17.009,341.964,2.452,370,0z"/>
<path fill-rule="evenodd" clip-rule="evenodd" fill="#070808" d="M464,93c-17.332-1-34.668-2-52-3c0.287-13.33,4.747-28.024-2-38
	c-0.333,0-0.667,0-1,0c-1-1.333-2-2.667-3-4c-0.667,0-1.333,0-2,0c0-0.333,0-0.667,0-1c-2.036-1.158-2.239-0.009-4-2
	c-9.291-0.195-16.821,0.436-23,3c0-13.332,0-26.668,0-40c8.666-0.333,17.334-0.667,26-1c0,0.333,0,0.667,0,1
	c4.333,0.333,8.667,0.667,13,1c0,0.333,0,0.667,0,1c1.333,0,2.667,0,4,0c0,0.333,0,0.667,0,1c1,0,2,0,3,0c0,0.333,0,0.667,0,1
	c1,0,2,0,3,0c0,0.333,0,0.667,0,1c1,0,2,0,3,0c0,0.333,0,0.667,0,1c1.333,0.333,2.667,0.667,4,1c0,0.333,0,0.667,0,1
	c0.667,0,1.333,0,2,0c0.333,0.667,0.667,1.333,1,2c1.333,0.333,2.667,0.667,4,1c0.667,1,1.333,2,2,3c0.667,0,1.333,0,2,0
	c1,1.333,2,2.667,3,4c1.667,1.333,3.333,2.667,5,4c0,0.667,0,1.333,0,2c1,0.667,2,1.333,3,2c0.333,1.333,0.667,2.667,1,4
	c0.667,0.333,1.333,0.667,2,1c0,0.667,0,1.333,0,2c0.333,0,0.667,0,1,0c0,0.667,0,1.333,0,2c0.333,0,0.667,0,1,0
	c1,4.333,2,8.667,3,13c0.333,0,0.667,0,1,0C464,68.332,464,80.668,464,93z"/>
<path fill-rule="evenodd" clip-rule="evenodd" fill="#070808" d="M240,17c-4,91.324-8,182.676-12,274
	c-15.332,1.333-30.668,2.667-46,4c-0.667-3-1.333-6-2-9c-0.333,0-0.667,0-1,0c-0.667-3.666-1.333-7.334-2-11c-0.333,0-0.667,0-1,0
	c-0.333-2.666-0.667-5.334-1-8c-0.333,0-0.667,0-1,0c0-1.333,0-2.667,0-4c-0.333,0-0.667,0-1,0c0-1,0-2,0-3c-0.333,0-0.667,0-1,0
	c-0.667-3.666-1.333-7.334-2-11c-0.333,0-0.667,0-1,0c-0.333-2.666-0.667-5.334-1-8c-4.513-12.483-7.536-27.546-12-40
	c0-1.333,0-2.667,0-4c-1.559-4.527-3.471-10.545-5-15c0-1.333,0-2.667,0-4c-0.333,0-0.667,0-1,0c-0.333-2.333-0.667-4.667-1-7
	c-0.333,0-0.667,0-1,0c0,0.667,0,1.333,0,2c-0.333,0-0.667,0-1,0c0,2.666,0,5.334,0,8c-0.333,0-0.667,0-1,0c0,2.666,0,5.334,0,8
	c-0.333,0-0.667,0-1,0c0,2.666,0,5.334,0,8c-0.333,0-0.667,0-1,0c0,3,0,6,0,9c-0.333,0-0.667,0-1,0c0,2.666,0,5.334,0,8
	c-0.333,0-0.667,0-1,0c0,2.666,0,5.334,0,8c-0.333,0-0.667,0-1,0c0,2.666,0,5.334,0,8c-0.333,0-0.667,0-1,0c0,2.666,0,5.334,0,8
	c-0.333,0-0.667,0-1,0c0,2.666,0,5.334,0,8c-0.333,0-0.667,0-1,0c0,2.666,0,5.334,0,8c-0.333,0-0.667,0-1,0c0,3,0,6,0,9
	c-0.333,0-0.667,0-1,0c-1,9.332-2,18.668-3,28c-21.331,1-42.669,2-64,3C46.002,203.009,22.998,111.991,0,21
	c17.665-0.667,35.335-1.333,53-2c13.999,66.993,28.001,134.007,42,201c6.666-66.327,13.334-132.673,20-199c15.998-1,32.002-2,48-3
	c14.332,66.66,28.668,133.34,43,200c7.333-66.66,14.667-133.34,22-200C232,17.667,236,17.333,240,17z"/>
<path fill-rule="evenodd" clip-rule="evenodd" fill="#070808" d="M282,21c-12.999,92.657-26.001,185.343-39,278
	c-3.666,0-7.334,0-11,0c4.666-91.991,9.334-184.009,14-276C257.999,22.333,270.001,21.667,282,21z"/>
<path fill-rule="evenodd" clip-rule="evenodd" fill="#070808" d="M376,295c0.333-13.665,0.667-27.335,1-41
	c17.421,3.334,27.807-1.689,32-15c0.333-7.333,0.667-14.667,1-22c0.333,0,0.667,0,1,0c0-5.999,0-12.001,0-18
	c-1.507-5.116-3.193-12.028-6-16c-2-1.667-4-3.333-6-5c-1-1.333-2-2.667-3-4c-0.667,0-1.333,0-2,0c-0.333-0.667-0.667-1.333-1-2
	c-0.667,0-1.333,0-2,0c-0.667-1-1.333-2-2-3c-0.667,0-1.333,0-2,0c-0.333-0.667-0.667-1.333-1-2c-2.527-1.677-7.816-4.339-11-5
	c1-19.331,2-38.669,3-58c0.333,0,0.667,0,1,0c1.651,2.468,3.507,2.334,6,4c0.333,0.667,0.667,1.333,1,2c1,0.333,2,0.667,3,1
	c0,0.333,0,0.667,0,1c0.667,0,1.333,0,2,0c0.333,0.667,0.667,1.333,1,2c0.667,0,1.333,0,2,0c0.333,0.667,0.667,1.333,1,2
	c0.667,0,1.333,0,2,0c0.333,0.667,0.667,1.333,1,2c0.667,0,1.333,0,2,0c0.333,0.667,0.667,1.333,1,2c0.667,0,1.333,0,2,0
	c0.333,0.667,0.667,1.333,1,2c0.667,0,1.333,0,2,0c0.667,1,1.333,2,2,3c0.667,0,1.333,0,2,0c0.333,0.667,0.667,1.333,1,2
	c0.667,0,1.333,0,2,0c0.667,1,1.333,2,2,3c0.667,0,1.333,0,2,0c0.667,1,1.333,2,2,3c0.667,0,1.333,0,2,0c0.667,1,1.333,2,2,3
	c0.667,0,1.333,0,2,0c0.667,1,1.333,2,2,3c0.667,0,1.333,0,2,0c1,1.333,2,2.667,3,4c0.667,0,1.333,0,2,0c1,1.333,2,2.667,3,4
	c0.667,0,1.333,0,2,0c1.333,1.667,2.667,3.334,4,5c0.667,0,1.333,0,2,0c4.333,4.666,8.667,9.334,13,14c5.63,8.899,7.997,23.454,8,38
	c0.007,34.097-4.261,63.866-25,77c-1.333,0.333-2.667,0.667-4,1c0,0.333,0,0.667,0,1c-1.333,0.333-2.667,0.667-4,1
	c0,0.333,0,0.667,0,1c-1,0-2,0-3,0c0,0.333,0,0.667,0,1c-1,0-2,0-3,0c0,0.333,0,0.667,0,1c-2.333,0.333-4.667,0.667-7,1
	c0,0.333,0,0.667,0,1c-1.333,0-2.667,0-4,0c0,0.333,0,0.667,0,1c-1.667,0-3.333,0-5,0c0,0.333,0,0.667,0,1c-2,0-4,0-6,0
	C397.154,293.297,385.617,294.901,376,295z"/>
<path fill-rule="evenodd" clip-rule="evenodd" fill="#070808" d="M357,181c-0.072,12.956-4.589,32.035-1,44c0,1.667,0,3.333,0,5
	c0.333,0,0.667,0,1,0c0,1,0,2,0,3c0.333,0,0.667,0,1,0c0,0.667,0,1.333,0,2c2,2.666,4,5.334,6,8c1.085,0.757,4.358,0.849,5,2
	c0,3.333,0,6.667,0,10c-1.603,1.811-0.997,6.642-1,10c-0.333,6.999-0.667,14.001-1,21c-10.332-1.667-20.668-3.333-31-5
	c0-0.333,0-0.667,0-1c-1.333-0.333-2.667-0.667-4-1c-0.333-0.667-0.667-1.333-1-2c-1.333-0.333-2.667-0.667-4-1
	c-0.667-1-1.333-2-2-3c-0.667,0-1.333,0-2,0c-1-1.333-2-2.667-3-4c-2-1.667-4-3.333-6-5c-4.975-6.948-8.359-15.789-11-25
	c0.667-18.998,1.333-38.002,2-57C322.332,181.667,339.668,181.333,357,181z"/>
</svg>
